<svg xmlns="http://www.w3.org/2000/svg" xmlns:xlink="http://www.w3.org/1999/xlink" stroke-miterlimit="10" stroke-linecap="square" stroke="none" fill="none" viewBox="0 62.64 961.0798650168729 321.84" version="1.1" style="max-height: 500px" width="961.0798650168729" height="321.84"><clipPath id="p.0"><path clip-rule="nonzero" d="m0 0l960.0 0l0 540.0l-960.0 0l0 -540.0z"/></clipPath><g clip-path="url(#p.0)"><path fill-rule="evenodd" d="m0 0l960.0 0l0 540.0l-960.0 0z" fill="#ffffff"/><path fill-rule="evenodd" d="m0 120.2336l960.0 0l0 247.27559l-960.0 0z" fill-opacity="0.0" fill="#000000"/><path fill-rule="nonzero" d="m99.58008 160.11736l28.28125 0q8.71875 0 15.3125 2.96875q6.609375 2.96875 10.328125 8.65625q3.71875 5.6875 3.71875 13.984375q0 6.359375 -2.71875 11.515625q-2.71875 5.140625 -7.390625 8.5q-4.65625 3.359375 -10.53125 4.390625l-2.125 0.78125l-32.515625 0l-0.109375 -4.484375l28.515625 0q7.328125 0 12.203125 -2.953125q4.875 -2.96875 7.3125 -7.71875q2.453125 -4.765625 2.453125 -10.03125q0 -6.59375 -2.9375 -11.28125q-2.921875 -4.703125 -8.40625 -7.265625q-5.484375 -2.578125 -13.109375 -2.578125l-23.375 0l0 83.671875l-4.90625 0l0 -88.15625zm56.125 88.15625l-23.609375 -39.109375l5.453125 -0.0625l23.375 38.328125l0 0.84375l-5.21875 0zm117.71289 -49.953125l0 11.75q0 8.84375 -2.34375 16.109375q-2.328125 7.265625 -6.75 12.46875q-4.40625 5.203125 -10.59375 8.03125q-6.171875 2.8125 -13.921875 2.8125q-7.5625 0 -13.796875 -2.8125q-6.234375 -2.828125 -10.6875 -8.03125q-4.453125 -5.203125 -6.84375 -12.46875q-2.390625 -7.265625 -2.390625 -16.109375l0 -11.75q0 -8.90625 2.390625 -16.140625q2.390625 -7.234375 6.8125 -12.4375q4.421875 -5.203125 10.625 -8.015625q6.203125 -2.828125 13.765625 -2.828125q7.75 0 13.921875 2.828125q6.1875 2.8125 10.640625 8.015625q4.453125 5.203125 6.8125 12.4375q2.359375 7.234375 2.359375 16.140625zm-4.84375 11.75l0 -11.875q0 -7.75 -1.9375 -14.125q-1.9375 -6.390625 -5.671875 -10.984375q-3.71875 -4.609375 -9.046875 -7.125q-5.328125 -2.515625 -12.234375 -2.515625q-6.71875 0 -12.046875 2.515625q-5.328125 2.515625 -9.015625 7.125q-3.6875 4.59375 -5.625 10.984375q-1.9375 6.375 -1.9375 14.125l0 11.875q0 7.8125 1.953125 14.234375q1.96875 6.40625 5.65625 11.015625q3.703125 4.59375 9.0625 7.109375q5.359375 2.515625 12.078125 2.515625q6.90625 0 12.234375 -2.515625q5.328125 -2.515625 9.015625 -7.109375q3.703125 -4.609375 5.609375 -11.015625q1.90625 -6.421875 1.90625 -14.234375zm18.042969 -49.953125l29.0625 50.25l29.296875 -50.25l5.8125 0l-32.6875 54.796875l0 33.359375l-4.90625 0l0 -33.359375l-32.703125 -54.796875l6.125 0zm99.05859 3.75l-31.375 84.40625l-5.203125 0l33.125 -88.15625l4.046875 0l-0.59375 3.75zm29.65625 84.40625l-31.296875 -84.40625l-0.609375 -3.75l4.0 0l33.171875 88.15625l-5.265625 0zm-7.75 -30.21875l0 4.546875l-45.21875 0l0 -4.546875l45.21875 0zm76.240234 25.734375l0 4.484375l-46.75 0l0 -4.484375l46.75 0zm-44.5625 -83.671875l0 88.15625l-4.96875 0l0 -88.15625l4.96875 0zm94.390625 0l0 88.15625l-4.90625 0l0 -88.15625l4.90625 0zm43.59375 41.046875l0 4.609375l-46.015625 0l0 -4.609375l46.015625 0zm6.109375 -41.046875l0 4.484375l-52.125 0l0 -4.484375l52.125 0zm65.39844 83.671875l0 4.484375l-46.75 0l0 -4.484375l46.75 0zm-44.5625 -83.671875l0 88.15625l-4.96875 0l0 -88.15625l4.96875 0zm111.27344 0l4.90625 0l0 59.765625q0 9.859375 -4.03125 16.46875q-4.015625 6.59375 -10.953125 9.875q-6.9375 3.265625 -15.46875 3.265625q-8.65625 0 -15.5625 -3.265625q-6.90625 -3.28125 -10.9375 -9.875q-4.015625 -6.609375 -4.015625 -16.46875l0 -59.765625l4.90625 0l0 59.765625q0 8.171875 3.328125 13.78125q3.328125 5.59375 9.140625 8.46875q5.8125 2.875 13.140625 2.875q7.328125 0 13.109375 -2.875q5.78125 -2.875 9.109375 -8.46875q3.328125 -5.609375 3.328125 -13.78125l0 -59.765625zm32.160156 0l0 88.15625l-4.90625 0l0 -88.15625l4.90625 0zm43.59375 41.046875l0 4.609375l-46.015625 0l0 -4.609375l46.015625 0zm6.109375 -41.046875l0 4.484375l-52.125 0l0 -4.484375l52.125 0zm20.773438 0l0 88.15625l-4.90625 0l0 -88.15625l4.90625 0zm43.59375 41.046875l0 4.609375l-46.015625 0l0 -4.609375l46.015625 0zm6.109375 -41.046875l0 4.484375l-52.125 0l0 -4.484375l52.125 0z" fill="#000000"/><path fill-rule="nonzero" d="m219.7955 294.86795l0 6.640625q-0.3125 0.453125 -1.140625 1.015625q-0.8125 0.546875 -2.15625 0.96875q-1.328125 0.40625 -3.234375 0.40625q-1.640625 0 -3.0 -0.59375q-1.359375 -0.609375 -2.34375 -1.734375q-0.984375 -1.125 -1.53125 -2.671875q-0.546875 -1.5625 -0.546875 -3.46875l0 -2.78125q0 -1.859375 0.515625 -3.359375q0.515625 -1.515625 1.46875 -2.609375q0.953125 -1.09375 2.265625 -1.671875q1.328125 -0.59375 2.9375 -0.59375q2.09375 0 3.515625 0.734375q1.421875 0.71875 2.21875 1.953125q0.8125 1.234375 1.0 2.78125l-1.0625 0q-0.1875 -1.1875 -0.8125 -2.203125q-0.609375 -1.03125 -1.796875 -1.65625q-1.1875 -0.640625 -3.0625 -0.640625q-1.421875 0 -2.546875 0.53125q-1.125 0.53125 -1.9375 1.5q-0.796875 0.953125 -1.21875 2.28125q-0.421875 1.328125 -0.421875 2.921875l0 2.8125q0 1.671875 0.4375 3.046875q0.453125 1.375 1.296875 2.375q0.84375 1.0 2.015625 1.546875q1.1875 0.53125 2.609375 0.53125q1.515625 0 2.640625 -0.296875q1.125 -0.296875 1.828125 -0.71875q0.71875 -0.421875 1.0 -0.796875l0 -5.265625l-5.515625 0l0 -0.984375l6.578125 0zm5.445984 -2.921875l0 11.6875l-1.03125 0l0 -14.078125l1.015625 0l0.015625 2.390625zm5.359375 -2.5l-0.0625 0.9375q-0.234375 -0.046875 -0.46875 -0.0625q-0.234375 -0.03125 -0.5 -0.03125q-1.109375 0 -1.953125 0.453125q-0.84375 0.4375 -1.40625 1.203125q-0.5625 0.765625 -0.859375 1.78125q-0.28125 1.015625 -0.296875 2.171875l-0.5 0.109375q0 -1.453125 0.296875 -2.671875q0.3125 -1.21875 0.9375 -2.125q0.625 -0.921875 1.578125 -1.421875q0.953125 -0.5 2.234375 -0.5q0.3125 0 0.5625 0.046875q0.265625 0.046875 0.4375 0.109375zm1.3063965 7.390625l0 -0.484375q0 -1.5625 0.4375 -2.84375q0.453125 -1.296875 1.265625 -2.234375q0.828125 -0.9375 1.96875 -1.453125q1.140625 -0.53125 2.53125 -0.53125q1.390625 0 2.53125 0.53125q1.15625 0.515625 1.984375 1.453125q0.828125 0.9375 1.265625 2.234375q0.4375 1.28125 0.4375 2.84375l0 0.484375q0 1.546875 -0.4375 2.84375q-0.4375 1.28125 -1.265625 2.234375q-0.8125 0.9375 -1.953125 1.46875q-1.140625 0.515625 -2.53125 0.515625q-1.40625 0 -2.546875 -0.515625q-1.140625 -0.53125 -1.96875 -1.46875q-0.828125 -0.953125 -1.28125 -2.234375q-0.4375 -1.296875 -0.4375 -2.84375zm1.046875 -0.484375l0 0.484375q0 1.21875 0.34375 2.328125q0.34375 1.09375 1.0 1.953125q0.671875 0.84375 1.625 1.34375q0.96875 0.484375 2.21875 0.484375q1.21875 0 2.1875 -0.484375q0.96875 -0.5 1.625 -1.34375q0.65625 -0.859375 1.0 -1.953125q0.34375 -1.109375 0.34375 -2.328125l0 -0.484375q0 -1.203125 -0.34375 -2.296875q-0.34375 -1.09375 -1.015625 -1.953125q-0.65625 -0.859375 -1.625 -1.359375q-0.96875 -0.5 -2.203125 -0.5q-1.234375 0 -2.1875 0.5q-0.953125 0.5 -1.625 1.359375q-0.671875 0.859375 -1.015625 1.953125q-0.328125 1.09375 -0.328125 2.296875zm13.725998 0.484375l0 -0.484375q0 -1.5625 0.4375 -2.84375q0.453125 -1.296875 1.265625 -2.234375q0.828125 -0.9375 1.96875 -1.453125q1.140625 -0.53125 2.53125 -0.53125q1.390625 0 2.53125 0.53125q1.1562347 0.515625 1.9843597 1.453125q0.828125 0.9375 1.265625 2.234375q0.4375 1.28125 0.4375 2.84375l0 0.484375q0 1.546875 -0.4375 2.84375q-0.4375 1.28125 -1.265625 2.234375q-0.8125 0.9375 -1.9531097 1.46875q-1.140625 0.515625 -2.53125 0.515625q-1.40625 0 -2.546875 -0.515625q-1.140625 -0.53125 -1.96875 -1.46875q-0.828125 -0.953125 -1.28125 -2.234375q-0.4375 -1.296875 -0.4375 -2.84375zm1.046875 -0.484375l0 0.484375q0 1.21875 0.34375 2.328125q0.34375 1.09375 1.0 1.953125q0.671875 0.84375 1.625 1.34375q0.96875 0.484375 2.21875 0.484375q1.21875 0 2.1875 -0.484375q0.96873474 -0.5 1.6249847 -1.34375q0.65625 -0.859375 1.0 -1.953125q0.34375 -1.109375 0.34375 -2.328125l0 -0.484375q0 -1.203125 -0.34375 -2.296875q-0.34375 -1.09375 -1.015625 -1.953125q-0.65625 -0.859375 -1.6249847 -1.359375q-0.96875 -0.5 -2.203125 -0.5q-1.234375 0 -2.1875 0.5q-0.953125 0.5 -1.625 1.359375q-0.671875 0.859375 -1.015625 1.953125q-0.328125 1.09375 -0.328125 2.296875zm15.632248 -3.828125l0 11.109375l-1.03125 0l0 -14.078125l1.015625 0l0.015625 2.96875zm-0.15625 2.984375l-0.53125 -0.59375q0.109375 -1.125 0.53125 -2.140625q0.421875 -1.015625 1.125 -1.796875q0.71875 -0.78125 1.6875 -1.234375q0.96875 -0.453125 2.171875 -0.453125q1.046875 0 1.890625 0.28125q0.84375 0.28125 1.421875 0.875q0.59375 0.59375 0.90625 1.546875q0.3125 0.9375 0.3125 2.265625l0 9.375l-1.046875 0l0 -9.34375q0 -1.59375 -0.46875 -2.453125q-0.46875 -0.875 -1.3125 -1.234375q-0.828125 -0.359375 -1.90625 -0.359375q-1.265625 0 -2.171875 0.5625q-0.890625 0.546875 -1.46875 1.390625q-0.5625 0.828125 -0.84375 1.734375q-0.265625 0.890625 -0.296875 1.578125zm9.5 -1.15625l-0.703125 -0.25q0.09375 -0.953125 0.53125 -1.8125q0.4375 -0.859375 1.15625 -1.53125q0.71875 -0.671875 1.6875 -1.0625q0.96875 -0.40625 2.15625 -0.40625q1.078125 0 1.921875 0.296875q0.859375 0.296875 1.4375 0.921875q0.578125 0.625 0.890625 1.609375q0.3125 0.984375 0.3125 2.375l0 9.140625l-1.046875 0l0 -9.15625q0 -1.65625 -0.46875 -2.578125q-0.453125 -0.9375 -1.296875 -1.296875q-0.828125 -0.375 -1.921875 -0.359375q-1.15625 0.015625 -2.015625 0.4375q-0.859375 0.40625 -1.4375 1.046875q-0.5625 0.640625 -0.875 1.34375q-0.296875 0.6875 -0.328125 1.28125zm18.74591 9.546875q-1.328125 0 -2.46875 -0.515625q-1.125 -0.515625 -1.96875 -1.4375q-0.84375 -0.9375 -1.328125 -2.21875q-0.46875 -1.28125 -0.46875 -2.796875l0 -0.578125q0 -1.5625 0.46875 -2.859375q0.484375 -1.296875 1.296875 -2.234375q0.828125 -0.953125 1.90625 -1.453125q1.078125 -0.515625 2.296875 -0.515625q1.234375 0 2.234375 0.453125q1.0 0.453125 1.71875 1.28125q0.71875 0.8125 1.09375 1.953125q0.375 1.125 0.375 2.5l0 0.875l-10.734375 0l0 -0.953125l9.703125 0l0 -0.171875q0 -1.328125 -0.53125 -2.453125q-0.53125 -1.140625 -1.515625 -1.828125q-0.96875 -0.703125 -2.34375 -0.703125q-1.109375 0 -2.015625 0.46875q-0.90625 0.46875 -1.5625 1.296875q-0.640625 0.828125 -1.0 1.9375q-0.34375 1.109375 -0.34375 2.40625l0 0.578125q0 1.25 0.390625 2.34375q0.390625 1.09375 1.09375 1.921875q0.703125 0.828125 1.65625 1.296875q0.953125 0.46875 2.078125 0.46875q1.21875 0 2.234375 -0.421875q1.015625 -0.4375 1.859375 -1.515625l0.671875 0.5q-0.46875 0.671875 -1.140625 1.21875q-0.65625 0.53125 -1.5625 0.84375q-0.90625 0.3125 -2.09375 0.3125zm9.387939 -11.953125l0 11.6875l-1.03125 0l0 -14.078125l1.015625 0l0.015625 2.390625zm5.359375 -2.5l-0.0625 0.9375q-0.234375 -0.046875 -0.46875 -0.0625q-0.234375 -0.03125 -0.5 -0.03125q-1.109375 0 -1.953125 0.453125q-0.84375 0.4375 -1.40625 1.203125q-0.5625 0.765625 -0.859375 1.78125q-0.28125 1.015625 -0.296875 2.171875l-0.5 0.109375q0 -1.453125 0.296875 -2.671875q0.3125 -1.21875 0.9375 -2.125q0.625 -0.921875 1.578125 -1.421875q0.953125 -0.5 2.234375 -0.5q0.3125 0 0.5625 0.046875q0.265625 0.046875 0.4375 0.109375zm7.285553 5.171875l0 0.953125l-6.15625 0l0 -0.953125l6.15625 0zm2.0776672 2.21875l0 -0.484375q0 -1.5625 0.4375 -2.84375q0.453125 -1.296875 1.265625 -2.234375q0.828125 -0.9375 1.96875 -1.453125q1.140625 -0.53125 2.53125 -0.53125q1.390625 0 2.53125 0.53125q1.15625 0.515625 1.984375 1.453125q0.828125 0.9375 1.265625 2.234375q0.4375 1.28125 0.4375 2.84375l0 0.484375q0 1.546875 -0.4375 2.84375q-0.4375 1.28125 -1.265625 2.234375q-0.8125 0.9375 -1.953125 1.46875q-1.140625 0.515625 -2.53125 0.515625q-1.40625 0 -2.546875 -0.515625q-1.140625 -0.53125 -1.96875 -1.46875q-0.828125 -0.953125 -1.28125 -2.234375q-0.4375 -1.296875 -0.4375 -2.84375zm1.046875 -0.484375l0 0.484375q0 1.21875 0.34375 2.328125q0.34375 1.09375 1.0 1.953125q0.671875 0.84375 1.625 1.34375q0.96875 0.484375 2.21875 0.484375q1.21875 0 2.1875 -0.484375q0.96875 -0.5 1.625 -1.34375q0.65625 -0.859375 1.0 -1.953125q0.34375 -1.109375 0.34375 -2.328125l0 -0.484375q0 -1.203125 -0.34375 -2.296875q-0.34375 -1.09375 -1.015625 -1.953125q-0.65625 -0.859375 -1.625 -1.359375q-0.96875 -0.5 -2.203125 -0.5q-1.234375 0 -2.1875 0.5q-0.953125 0.5 -1.625 1.359375q-0.671875 0.859375 -1.015625 1.953125q-0.328125 1.09375 -0.328125 2.296875zm18.835388 3.515625l3.25 -10.3125l0.8125 0l-0.859375 3.265625l-3.46875 10.8125l-0.828125 0l1.09375 -3.765625zm-4.1875 -10.3125l2.921875 10.328125l0.875 3.75l-0.828125 0l-4.09375 -14.078125l1.125 0zm12.9375 10.3125l2.875 -10.3125l1.140625 0l-4.109375 14.078125l-0.828125 0l0.921875 -3.765625zm-4.546875 -10.3125l3.234375 10.28125l1.109375 3.796875l-0.84375 0l-3.515625 -10.8125l-0.8125 -3.265625l0.828125 0zm12.851501 3.0l0 11.078125l-1.03125 0l0 -14.078125l1.015625 0l0.015625 3.0zm-0.1875 2.953125l-0.515625 -0.59375q0.125 -1.125 0.546875 -2.140625q0.4375 -1.015625 1.15625 -1.796875q0.734375 -0.78125 1.703125 -1.234375q0.96875 -0.453125 2.140625 -0.453125q1.046875 0 1.875 0.296875q0.84375 0.296875 1.421875 0.921875q0.578125 0.609375 0.875 1.59375q0.3125 0.984375 0.3125 2.390625l0 9.140625l-1.03125 0l0 -9.140625q0 -1.65625 -0.46875 -2.578125q-0.453125 -0.921875 -1.265625 -1.296875q-0.8125 -0.375 -1.890625 -0.375q-1.25 0 -2.15625 0.5625q-0.90625 0.546875 -1.5 1.390625q-0.578125 0.828125 -0.890625 1.734375q-0.296875 0.890625 -0.3125 1.578125zm18.9917 8.390625q-1.328125 0 -2.46875 -0.515625q-1.125 -0.515625 -1.96875 -1.4375q-0.84375 -0.9375 -1.328125 -2.21875q-0.46875 -1.28125 -0.46875 -2.796875l0 -0.578125q0 -1.5625 0.46875 -2.859375q0.484375 -1.296875 1.296875 -2.234375q0.828125 -0.953125 1.90625 -1.453125q1.078125 -0.515625 2.296875 -0.515625q1.234375 0 2.234375 0.453125q1.0 0.453125 1.71875 1.28125q0.71875 0.8125 1.09375 1.953125q0.375 1.125 0.375 2.5l0 0.875l-10.734375 0l0 -0.953125l9.703125 0l0 -0.171875q0 -1.328125 -0.53125 -2.453125q-0.53125 -1.140625 -1.515625 -1.828125q-0.96875 -0.703125 -2.34375 -0.703125q-1.109375 0 -2.015625 0.46875q-0.90625 0.46875 -1.5625 1.296875q-0.640625 0.828125 -1.0 1.9375q-0.34375 1.109375 -0.34375 2.40625l0 0.578125q0 1.25 0.390625 2.34375q0.390625 1.09375 1.09375 1.921875q0.703125 0.828125 1.65625 1.296875q0.953125 0.46875 2.078125 0.46875q1.21875 0 2.234375 -0.421875q1.015625 -0.4375 1.859375 -1.515625l0.671875 0.5q-0.46875 0.671875 -1.140625 1.21875q-0.65625 0.53125 -1.5625 0.84375q-0.90625 0.3125 -2.09375 0.3125zm17.700409 -3.0l0 -17.265625l1.015625 0l0 20.0l-0.984375 0l-0.03125 -2.734375zm-9.984375 -4.171875l0 -0.28125q0 -1.65625 0.359375 -2.96875q0.375 -1.328125 1.0625 -2.25q0.6875 -0.9375 1.6875 -1.4375q1.0 -0.5 2.265625 -0.5q1.171875 0 2.09375 0.375q0.9375 0.375 1.609375 1.0625q0.671875 0.671875 1.109375 1.59375q0.4375 0.90625 0.65625 2.015625l0 4.859375q-0.15625 0.96875 -0.59375 1.828125q-0.421875 0.859375 -1.109375 1.5q-0.671875 0.640625 -1.625 1.015625q-0.953125 0.359375 -2.171875 0.359375q-1.25 0 -2.25 -0.515625q-0.984375 -0.53125 -1.671875 -1.484375q-0.6875 -0.953125 -1.0625 -2.265625q-0.359375 -1.3125 -0.359375 -2.90625zm1.0625 -0.28125l0 0.28125q0 1.328125 0.265625 2.46875q0.265625 1.125 0.796875 1.96875q0.546875 0.828125 1.375 1.296875q0.828125 0.46875 1.953125 0.46875q1.421875 0 2.40625 -0.515625q1.0 -0.53125 1.59375 -1.390625q0.59375 -0.859375 0.828125 -1.890625l0 -4.59375q-0.140625 -0.671875 -0.453125 -1.421875q-0.3125 -0.75 -0.859375 -1.390625q-0.53125 -0.65625 -1.390625 -1.0625q-0.859375 -0.40625 -2.109375 -0.40625q-1.125 0 -1.953125 0.46875q-0.828125 0.46875 -1.375 1.296875q-0.546875 0.828125 -0.8125 1.96875q-0.265625 1.125 -0.265625 2.453125zm26.283417 7.1875l-4.5 0l0.03125 -0.96875l4.46875 0q2.03125 0 3.59375 -0.9375q1.5625 -0.953125 2.4375 -2.640625q0.890625 -1.6875 0.890625 -3.890625l0 -2.125q0 -1.640625 -0.515625 -3.0q-0.5 -1.359375 -1.421875 -2.34375q-0.921875 -1.0 -2.1875 -1.53125q-1.25 -0.546875 -2.75 -0.546875l-4.625 0l0 -0.96875l4.625 0q1.703125 0 3.15625 0.609375q1.453125 0.609375 2.515625 1.71875q1.0625 1.109375 1.65625 2.671875q0.59375 1.546875 0.59375 3.4375l0 2.078125q0 1.890625 -0.59375 3.453125q-0.59375 1.546875 -1.671875 2.671875q-1.0625 1.109375 -2.515625 1.71875q-1.453125 0.59375 -3.1875 0.59375zm-4.171875 -18.953125l0 18.953125l-1.046875 0l0 -18.953125l1.046875 0zm15.047852 12.15625l0 -0.484375q0 -1.5625 0.4375 -2.84375q0.453125 -1.296875 1.265625 -2.234375q0.828125 -0.9375 1.96875 -1.453125q1.140625 -0.53125 2.53125 -0.53125q1.390625 0 2.53125 0.53125q1.15625 0.515625 1.984375 1.453125q0.828125 0.9375 1.265625 2.234375q0.4375 1.28125 0.4375 2.84375l0 0.484375q0 1.546875 -0.4375 2.84375q-0.4375 1.28125 -1.265625 2.234375q-0.8125 0.9375 -1.953125 1.46875q-1.140625 0.515625 -2.53125 0.515625q-1.40625 0 -2.546875 -0.515625q-1.140625 -0.53125 -1.96875 -1.46875q-0.828125 -0.953125 -1.28125 -2.234375q-0.4375 -1.296875 -0.4375 -2.84375zm1.046875 -0.484375l0 0.484375q0 1.21875 0.34375 2.328125q0.34375 1.09375 1.0 1.953125q0.671875 0.84375 1.625 1.34375q0.96875 0.484375 2.21875 0.484375q1.21875 0 2.1875 -0.484375q0.96875 -0.5 1.625 -1.34375q0.65625 -0.859375 1.0 -1.953125q0.34375 -1.109375 0.34375 -2.328125l0 -0.484375q0 -1.203125 -0.34375 -2.296875q-0.34375 -1.09375 -1.015625 -1.953125q-0.65625 -0.859375 -1.625 -1.359375q-0.96875 -0.5 -2.203125 -0.5q-1.234375 0 -2.1875 0.5q-0.953125 0.5 -1.625 1.359375q-0.671875 0.859375 -1.015625 1.953125q-0.328125 1.09375 -0.328125 2.296875zm24.069763 -6.796875l1.0 0l0 13.859375q0 1.8125 -0.671875 3.125q-0.65625 1.328125 -1.875 2.03125q-1.203125 0.71875 -2.90625 0.71875q-0.953125 0 -1.84375 -0.296875q-0.875 -0.28125 -1.609375 -0.828125q-0.734375 -0.53125 -1.265625 -1.265625l0.640625 -0.65625q0.828125 1.03125 1.8125 1.5625q0.984375 0.546875 2.21875 0.546875q1.453125 0 2.4375 -0.609375q1.0 -0.59375 1.5 -1.703125q0.515625 -1.09375 0.515625 -2.59375l0 -10.796875l0.046875 -3.09375zm-10.0 7.171875l0 -0.28125q0 -1.65625 0.359375 -2.96875q0.359375 -1.328125 1.046875 -2.25q0.703125 -0.9375 1.6875 -1.4375q1.0 -0.5 2.265625 -0.5q1.1875 0 2.09375 0.375q0.921875 0.375 1.609375 1.0625q0.6875 0.671875 1.109375 1.59375q0.4375 0.90625 0.671875 2.015625l0 4.859375q-0.171875 0.96875 -0.59375 1.828125q-0.421875 0.859375 -1.109375 1.5q-0.6875 0.640625 -1.640625 1.015625q-0.953125 0.359375 -2.171875 0.359375q-1.25 0 -2.234375 -0.515625q-0.984375 -0.53125 -1.6875 -1.484375q-0.6875 -0.953125 -1.046875 -2.265625q-0.359375 -1.3125 -0.359375 -2.90625zm1.046875 -0.28125l0 0.28125q0 1.328125 0.265625 2.46875q0.265625 1.125 0.796875 1.96875q0.546875 0.828125 1.375 1.296875q0.84375 0.46875 1.953125 0.46875q1.421875 0 2.390625 -0.515625q0.984375 -0.53125 1.5625 -1.390625q0.59375 -0.859375 0.828125 -1.890625l0 -4.59375q-0.140625 -0.671875 -0.4375 -1.421875q-0.296875 -0.75 -0.84375 -1.390625q-0.53125 -0.65625 -1.390625 -1.0625q-0.84375 -0.40625 -2.09375 -0.40625q-1.109375 0 -1.953125 0.46875q-0.84375 0.46875 -1.390625 1.296875q-0.53125 0.828125 -0.796875 1.96875q-0.265625 1.125 -0.265625 2.453125zm34.564667 -1.578125l0 6.640625q-0.3125 0.453125 -1.140625 1.015625q-0.8125 0.546875 -2.15625 0.96875q-1.328125 0.40625 -3.234375 0.40625q-1.640625 0 -3.0 -0.59375q-1.359375 -0.609375 -2.34375 -1.734375q-0.984375 -1.125 -1.53125 -2.671875q-0.546875 -1.5625 -0.546875 -3.46875l0 -2.78125q0 -1.859375 0.515625 -3.359375q0.515625 -1.515625 1.46875 -2.609375q0.953125 -1.09375 2.265625 -1.671875q1.328125 -0.59375 2.9375 -0.59375q2.09375 0 3.515625 0.734375q1.421875 0.71875 2.21875 1.953125q0.8125 1.234375 1.0 2.78125l-1.0625 0q-0.1875 -1.1875 -0.8125 -2.203125q-0.609375 -1.03125 -1.796875 -1.65625q-1.1875 -0.640625 -3.0625 -0.640625q-1.421875 0 -2.546875 0.53125q-1.125 0.53125 -1.9375 1.5q-0.796875 0.953125 -1.21875 2.28125q-0.421875 1.328125 -0.421875 2.921875l0 2.8125q0 1.671875 0.4375 3.046875q0.453125 1.375 1.296875 2.375q0.84375 1.0 2.015625 1.546875q1.1875 0.53125 2.609375 0.53125q1.515625 0 2.640625 -0.296875q1.125 -0.296875 1.828125 -0.71875q0.71875 -0.421875 1.0 -0.796875l0 -5.265625l-5.515625 0l0 -0.984375l6.578125 0zm5.445984 -2.921875l0 11.6875l-1.03125 0l0 -14.078125l1.015625 0l0.015625 2.390625zm5.359375 -2.5l-0.0625 0.9375q-0.234375 -0.046875 -0.46875 -0.0625q-0.234375 -0.03125 -0.5 -0.03125q-1.109375 0 -1.953125 0.453125q-0.84375 0.4375 -1.40625 1.203125q-0.5625 0.765625 -0.859375 1.78125q-0.28125 1.015625 -0.296875 2.171875l-0.5 0.109375q0 -1.453125 0.296875 -2.671875q0.3125 -1.21875 0.9375 -2.125q0.625 -0.921875 1.578125 -1.421875q0.953125 -0.5 2.234375 -0.5q0.3125 0 0.5625 0.046875q0.265625 0.046875 0.4375 0.109375zm1.3063965 7.390625l0 -0.484375q0 -1.5625 0.4375 -2.84375q0.453125 -1.296875 1.265625 -2.234375q0.828125 -0.9375 1.96875 -1.453125q1.140625 -0.53125 2.53125 -0.53125q1.390625 0 2.53125 0.53125q1.15625 0.515625 1.984375 1.453125q0.828125 0.9375 1.265625 2.234375q0.4375 1.28125 0.4375 2.84375l0 0.484375q0 1.546875 -0.4375 2.84375q-0.4375 1.28125 -1.265625 2.234375q-0.8125 0.9375 -1.953125 1.46875q-1.140625 0.515625 -2.53125 0.515625q-1.40625 0 -2.546875 -0.515625q-1.140625 -0.53125 -1.96875 -1.46875q-0.828125 -0.953125 -1.28125 -2.234375q-0.4375 -1.296875 -0.4375 -2.84375zm1.046875 -0.484375l0 0.484375q0 1.21875 0.34375 2.328125q0.34375 1.09375 1.0 1.953125q0.671875 0.84375 1.625 1.34375q0.96875 0.484375 2.21875 0.484375q1.21875 0 2.1875 -0.484375q0.96875 -0.5 1.625 -1.34375q0.65625 -0.859375 1.0 -1.953125q0.34375 -1.109375 0.34375 -2.328125l0 -0.484375q0 -1.203125 -0.34375 -2.296875q-0.34375 -1.09375 -1.015625 -1.953125q-0.65625 -0.859375 -1.625 -1.359375q-0.96875 -0.5 -2.203125 -0.5q-1.234375 0 -2.1875 0.5q-0.953125 0.5 -1.625 1.359375q-0.671875 0.859375 -1.015625 1.953125q-0.328125 1.09375 -0.328125 2.296875zm13.726013 0.484375l0 -0.484375q0 -1.5625 0.4375 -2.84375q0.453125 -1.296875 1.265625 -2.234375q0.828125 -0.9375 1.96875 -1.453125q1.140625 -0.53125 2.53125 -0.53125q1.390625 0 2.53125 0.53125q1.15625 0.515625 1.984375 1.453125q0.828125 0.9375 1.265625 2.234375q0.4375 1.28125 0.4375 2.84375l0 0.484375q0 1.546875 -0.4375 2.84375q-0.4375 1.28125 -1.265625 2.234375q-0.8125 0.9375 -1.953125 1.46875q-1.140625 0.515625 -2.53125 0.515625q-1.40625 0 -2.546875 -0.515625q-1.140625 -0.53125 -1.96875 -1.46875q-0.828125 -0.953125 -1.28125 -2.234375q-0.4375 -1.296875 -0.4375 -2.84375zm1.046875 -0.484375l0 0.484375q0 1.21875 0.34375 2.328125q0.34375 1.09375 1.0 1.953125q0.671875 0.84375 1.625 1.34375q0.96875 0.484375 2.21875 0.484375q1.21875 0 2.1875 -0.484375q0.96875 -0.5 1.625 -1.34375q0.65625 -0.859375 1.0 -1.953125q0.34375 -1.109375 0.34375 -2.328125l0 -0.484375q0 -1.203125 -0.34375 -2.296875q-0.34375 -1.09375 -1.015625 -1.953125q-0.65625 -0.859375 -1.625 -1.359375q-0.96875 -0.5 -2.203125 -0.5q-1.234375 0 -2.1875 0.5q-0.953125 0.5 -1.625 1.359375q-0.671875 0.859375 -1.015625 1.953125q-0.328125 1.09375 -0.328125 2.296875zm15.632263 -3.828125l0 11.109375l-1.03125 0l0 -14.078125l1.015625 0l0.015625 2.96875zm-0.15625 2.984375l-0.53125 -0.59375q0.109375 -1.125 0.53125 -2.140625q0.421875 -1.015625 1.1249695 -1.796875q0.71875 -0.78125 1.6875 -1.234375q0.96875 -0.453125 2.171875 -0.453125q1.046875 0 1.890625 0.28125q0.84375 0.28125 1.421875 0.875q0.59375 0.59375 0.90625 1.546875q0.3125 0.9375 0.3125 2.265625l0 9.375l-1.046875 0l0 -9.34375q0 -1.59375 -0.46875 -2.453125q-0.46875 -0.875 -1.3125 -1.234375q-0.828125 -0.359375 -1.90625 -0.359375q-1.265625 0 -2.171875 0.5625q-0.890625 0.546875 -1.46875 1.390625q-0.5624695 0.828125 -0.8437195 1.734375q-0.265625 0.890625 -0.296875 1.578125zm9.4999695 -1.15625l-0.703125 -0.25q0.09375 -0.953125 0.53125 -1.8125q0.4375 -0.859375 1.15625 -1.53125q0.71875 -0.671875 1.6875 -1.0625q0.96875 -0.40625 2.15625 -0.40625q1.078125 0 1.921875 0.296875q0.859375 0.296875 1.4375 0.921875q0.578125 0.625 0.890625 1.609375q0.3125 0.984375 0.3125 2.375l0 9.140625l-1.046875 0l0 -9.15625q0 -1.65625 -0.46875 -2.578125q-0.453125 -0.9375 -1.296875 -1.296875q-0.828125 -0.375 -1.921875 -0.359375q-1.15625 0.015625 -2.015625 0.4375q-0.859375 0.40625 -1.4375 1.046875q-0.5625 0.640625 -0.875 1.34375q-0.296875 0.6875 -0.328125 1.28125zm14.745972 -4.796875l0 14.078125l-1.046875 0l0 -14.078125l1.046875 0zm-1.375 -4.28125q0 -0.34375 0.234375 -0.59375q0.25 -0.265625 0.625 -0.265625q0.375 0 0.609375 0.265625q0.25 0.25 0.25 0.59375q0 0.359375 -0.25 0.609375q-0.234375 0.234375 -0.609375 0.234375q-0.375 0 -0.625 -0.234375q-0.234375 -0.25 -0.234375 -0.609375zm6.875366 7.28125l0 11.078125l-1.03125 0l0 -14.078125l1.015625 0l0.015625 3.0zm-0.1875 2.953125l-0.515625 -0.59375q0.125 -1.125 0.546875 -2.140625q0.4375 -1.015625 1.15625 -1.796875q0.734375 -0.78125 1.703125 -1.234375q0.96875 -0.453125 2.140625 -0.453125q1.046875 0 1.875 0.296875q0.84375 0.296875 1.421875 0.921875q0.578125 0.609375 0.875 1.59375q0.3125 0.984375 0.3125 2.390625l0 9.140625l-1.03125 0l0 -9.140625q0 -1.65625 -0.46875 -2.578125q-0.453125 -0.921875 -1.265625 -1.296875q-0.8125 -0.375 -1.890625 -0.375q-1.25 0 -2.15625 0.5625q-0.90625 0.546875 -1.5 1.390625q-0.578125 0.828125 -0.890625 1.734375q-0.296875 0.890625 -0.3125 1.578125zm23.132324 -5.953125l1.0 0l0 13.859375q0 1.8125 -0.671875 3.125q-0.65625 1.328125 -1.875 2.03125q-1.203125 0.71875 -2.90625 0.71875q-0.953125 0 -1.84375 -0.296875q-0.875 -0.28125 -1.609375 -0.828125q-0.734375 -0.53125 -1.265625 -1.265625l0.640625 -0.65625q0.828125 1.03125 1.8125 1.5625q0.984375 0.546875 2.21875 0.546875q1.453125 0 2.4375 -0.609375q1.0 -0.59375 1.5 -1.703125q0.515625 -1.09375 0.515625 -2.59375l0 -10.796875l0.046875 -3.09375zm-10.0 7.171875l0 -0.28125q0 -1.65625 0.359375 -2.96875q0.359375 -1.328125 1.046875 -2.25q0.703125 -0.9375 1.6875 -1.4375q1.0 -0.5 2.265625 -0.5q1.1875 0 2.09375 0.375q0.921875 0.375 1.609375 1.0625q0.6875 0.671875 1.109375 1.59375q0.4375 0.90625 0.671875 2.015625l0 4.859375q-0.171875 0.96875 -0.59375 1.828125q-0.421875 0.859375 -1.109375 1.5q-0.6875 0.640625 -1.640625 1.015625q-0.953125 0.359375 -2.171875 0.359375q-1.25 0 -2.234375 -0.515625q-0.984375 -0.53125 -1.6875 -1.484375q-0.6875 -0.953125 -1.046875 -2.265625q-0.359375 -1.3125 -0.359375 -2.90625zm1.046875 -0.28125l0 0.28125q0 1.328125 0.265625 2.46875q0.265625 1.125 0.796875 1.96875q0.546875 0.828125 1.375 1.296875q0.84375 0.46875 1.953125 0.46875q1.421875 0 2.390625 -0.515625q0.984375 -0.53125 1.5625 -1.390625q0.59375 -0.859375 0.828125 -1.890625l0 -4.59375q-0.140625 -0.671875 -0.4375 -1.421875q-0.296875 -0.75 -0.84375 -1.390625q-0.53125 -0.65625 -1.390625 -1.0625q-0.84375 -0.40625 -2.09375 -0.40625q-1.109375 0 -1.953125 0.46875q-0.84375 0.46875 -1.390625 1.296875q-0.53125 0.828125 -0.796875 1.96875q-0.265625 1.125 -0.265625 2.453125zm23.486511 -2.84375l3.15625 -2.484375q0.828125 -0.625 1.421875 -1.40625q0.609375 -0.796875 0.609375 -1.75q0 -1.03125 -0.703125 -1.8125q-0.703125 -0.796875 -2.0625 -0.796875q-0.984375 0 -1.671875 0.4375q-0.6875 0.421875 -1.046875 1.15625q-0.34375 0.71875 -0.34375 1.578125q0 0.65625 0.234375 1.359375q0.234375 0.6875 0.6875 1.4375q0.46875 0.75 1.15625 1.5625l9.375 10.75l-1.265625 0l-8.15625 -9.3125q-0.953125 -1.09375 -1.65625 -2.046875q-0.6875 -0.953125 -1.0625 -1.84375q-0.359375 -0.90625 -0.359375 -1.875q0 -1.25 0.5 -2.171875q0.5 -0.9375 1.421875 -1.453125q0.9375 -0.515625 2.1875 -0.515625q1.21875 0 2.046875 0.484375q0.84375 0.484375 1.28125 1.296875q0.453125 0.796875 0.453125 1.765625q0 0.8125 -0.40625 1.546875q-0.40625 0.71875 -0.984375 1.3125q-0.578125 0.59375 -1.125 1.03125l-3.28125 2.59375q-1.234375 1.03125 -1.84375 1.859375q-0.59375 0.828125 -0.796875 1.484375q-0.203125 0.640625 -0.203125 1.15625q0 1.046875 0.5 1.96875q0.515625 0.90625 1.5625 1.46875q1.046875 0.5625 2.640625 0.5625q1.3125 0 2.515625 -0.546875q1.203125 -0.546875 2.15625 -1.546875q0.953125 -1.015625 1.5 -2.421875q0.5625 -1.40625 0.5625 -3.125l0.984375 0q0 1.203125 -0.234375 2.25q-0.234375 1.03125 -0.671875 1.90625q-0.4375 0.875 -1.0625 1.625q-0.09375 0.125 -0.109375 0.15625q-0.015625 0.015625 -0.125 0.140625q-1.0625 1.109375 -2.46875 1.8125q-1.390625 0.703125 -3.046875 0.703125q-1.78125 0 -3.078125 -0.609375q-1.28125 -0.625 -1.984375 -1.734375q-0.6875 -1.109375 -0.6875 -2.609375q0 -1.109375 0.46875 -2.03125q0.46875 -0.921875 1.265625 -1.734375q0.796875 -0.8125 1.75 -1.578125zm26.7099 0.765625l-5.671875 0l-0.015625 -0.953125l4.75 0q1.578125 0 2.671875 -0.421875q1.09375 -0.4375 1.65625 -1.296875q0.5625 -0.875 0.5625 -2.171875q0 -1.296875 -0.578125 -2.15625q-0.5625 -0.859375 -1.703125 -1.28125q-1.140625 -0.4375 -2.84375 -0.4375l-4.171875 0l0 17.984375l-1.046875 0l0 -18.953125l5.21875 0q1.4375 0 2.578125 0.296875q1.15625 0.28125 1.953125 0.890625q0.796875 0.59375 1.21875 1.53125q0.4375 0.921875 0.4375 2.171875q0 1.171875 -0.46875 2.109375q-0.46875 0.9375 -1.34375 1.53125q-0.875 0.59375 -2.140625 0.71875l-1.0625 0.4375zm-0.125 9.265625l-5.765625 0l0.453125 -0.96875l5.3125 0q1.53125 0 2.609375 -0.5q1.09375 -0.515625 1.671875 -1.46875q0.59375 -0.96875 0.59375 -2.3125q0 -1.078125 -0.515625 -1.984375q-0.515625 -0.921875 -1.578125 -1.46875q-1.046875 -0.5625 -2.65625 -0.5625l-3.171875 0l0.03125 -0.953125l4.5625 0l0.140625 0.34375q1.25 0.140625 2.203125 0.796875q0.953125 0.640625 1.5 1.640625q0.546875 1.0 0.546875 2.171875q0 1.703125 -0.765625 2.875q-0.75 1.171875 -2.078125 1.78125q-1.328125 0.609375 -3.09375 0.609375zm18.272339 -2.59375l0 -7.265625q0 -1.109375 -0.46875 -1.90625q-0.46875 -0.796875 -1.375 -1.21875q-0.890625 -0.421875 -2.1875 -0.421875q-1.203125 0 -2.171875 0.421875q-0.953125 0.421875 -1.5 1.15625q-0.546875 0.71875 -0.546875 1.625l-1.046875 -0.015625q0 -0.8125 0.390625 -1.546875q0.390625 -0.75 1.09375 -1.328125q0.703125 -0.578125 1.671875 -0.90625q0.984375 -0.34375 2.140625 -0.34375q1.484375 0 2.609375 0.5q1.140625 0.5 1.78125 1.5q0.640625 1.0 0.640625 2.5l0 6.953125q0 0.75 0.09375 1.53125q0.109375 0.765625 0.296875 1.234375l0 0.125l-1.125 0q-0.15625 -0.5 -0.234375 -1.203125q-0.0625 -0.71875 -0.0625 -1.390625zm0.34375 -5.390625l0.03125 0.890625l-3.4375 0q-1.3125 0 -2.34375 0.25q-1.015625 0.25 -1.734375 0.703125q-0.71875 0.453125 -1.09375 1.078125q-0.375 0.625 -0.375 1.40625q0 0.8125 0.421875 1.484375q0.4375 0.671875 1.21875 1.078125q0.78125 0.390625 1.8125 0.390625q1.390625 0 2.484375 -0.484375q1.09375 -0.484375 1.828125 -1.328125q0.75 -0.84375 1.078125 -1.953125l0.453125 0.765625q-0.21875 0.6875 -0.6875 1.390625q-0.46875 0.703125 -1.21875 1.28125q-0.734375 0.578125 -1.734375 0.9375q-1.0 0.359375 -2.28125 0.359375q-1.328125 0 -2.328125 -0.5q-1.0 -0.5 -1.546875 -1.375q-0.546875 -0.890625 -0.546875 -2.015625q0 -0.984375 0.4375 -1.78125q0.453125 -0.8125 1.28125 -1.390625q0.84375 -0.578125 2.046875 -0.875q1.203125 -0.3125 2.71875 -0.3125l3.515625 0zm10.069946 -6.09375l0 0.9375l-6.734375 0l0 -0.9375l6.734375 0zm-4.140625 -3.734375l1.046875 0l0 14.421875q0 1.125 0.28125 1.703125q0.28125 0.578125 0.734375 0.78125q0.46875 0.203125 1.0 0.203125q0.375 0 0.6875 -0.03125q0.328125 -0.046875 0.65625 -0.09375l0.09375 0.90625q-0.296875 0.09375 -0.75 0.140625q-0.453125 0.046875 -0.796875 0.046875q-0.890625 0 -1.5625 -0.328125q-0.65625 -0.328125 -1.03125 -1.125q-0.359375 -0.796875 -0.359375 -2.203125l0 -14.421875zm8.658203 -2.1875l0 20.0l-1.03125 0l0 -20.0l1.03125 0zm-0.1875 11.875l-0.515625 -0.59375q0.125 -1.125 0.546875 -2.140625q0.4375 -1.015625 1.15625 -1.796875q0.734375 -0.78125 1.703125 -1.234375q0.96875 -0.453125 2.140625 -0.453125q1.046875 0 1.875 0.296875q0.84375 0.296875 1.421875 0.921875q0.578125 0.609375 0.875 1.59375q0.3125 0.984375 0.3125 2.390625l0 9.140625l-1.03125 0l0 -9.140625q0 -1.65625 -0.46875 -2.578125q-0.453125 -0.921875 -1.265625 -1.296875q-0.8125 -0.375 -1.890625 -0.375q-1.25 0 -2.15625 0.5625q-0.90625 0.546875 -1.5 1.390625q-0.578125 0.828125 -0.890625 1.734375q-0.296875 0.890625 -0.3125 1.578125zm14.978638 -5.953125l0 14.078125l-1.046875 0l0 -14.078125l1.046875 0zm-1.375 -4.28125q0 -0.34375 0.234375 -0.59375q0.25 -0.265625 0.625 -0.265625q0.375 0 0.609375 0.265625q0.25 0.25 0.25 0.59375q0 0.359375 -0.25 0.609375q-0.234375 0.234375 -0.609375 0.234375q-0.375 0 -0.625 -0.234375q-0.234375 -0.25 -0.234375 -0.609375zm6.875366 7.28125l0 11.078125l-1.03125 0l0 -14.078125l1.015625 0l0.015625 3.0zm-0.1875 2.953125l-0.515625 -0.59375q0.125 -1.125 0.546875 -2.140625q0.4375 -1.015625 1.15625 -1.796875q0.734375 -0.78125 1.703125 -1.234375q0.96875 -0.453125 2.140625 -0.453125q1.046875 0 1.875 0.296875q0.84375 0.296875 1.421875 0.921875q0.578125 0.609375 0.875 1.59375q0.3125 0.984375 0.3125 2.390625l0 9.140625l-1.03125 0l0 -9.140625q0 -1.65625 -0.46875 -2.578125q-0.453125 -0.921875 -1.265625 -1.296875q-0.8125 -0.375 -1.890625 -0.375q-1.25 0 -2.15625 0.5625q-0.90625 0.546875 -1.5 1.390625q-0.578125 0.828125 -0.890625 1.734375q-0.296875 0.890625 -0.3125 1.578125zm23.132324 -5.953125l1.0 0l0 13.859375q0 1.8125 -0.671875 3.125q-0.65625 1.328125 -1.875 2.03125q-1.203125 0.71875 -2.90625 0.71875q-0.953125 0 -1.84375 -0.296875q-0.875 -0.28125 -1.609375 -0.828125q-0.734375 -0.53125 -1.265625 -1.265625l0.640625 -0.65625q0.828125 1.03125 1.8125 1.5625q0.984375 0.546875 2.21875 0.546875q1.453125 0 2.4375 -0.609375q1.0 -0.59375 1.5 -1.703125q0.515625 -1.09375 0.515625 -2.59375l0 -10.796875l0.046875 -3.09375zm-10.0 7.171875l0 -0.28125q0 -1.65625 0.359375 -2.96875q0.359375 -1.328125 1.046875 -2.25q0.703125 -0.9375 1.6875 -1.4375q1.0 -0.5 2.265625 -0.5q1.1875 0 2.09375 0.375q0.921875 0.375 1.609375 1.0625q0.6875 0.671875 1.109375 1.59375q0.4375 0.90625 0.671875 2.015625l0 4.859375q-0.171875 0.96875 -0.59375 1.828125q-0.421875 0.859375 -1.109375 1.5q-0.6875 0.640625 -1.640625 1.015625q-0.953125 0.359375 -2.171875 0.359375q-1.25 0 -2.234375 -0.515625q-0.984375 -0.53125 -1.6875 -1.484375q-0.6875 -0.953125 -1.046875 -2.265625q-0.359375 -1.3125 -0.359375 -2.90625zm1.046875 -0.28125l0 0.28125q0 1.328125 0.265625 2.46875q0.265625 1.125 0.796875 1.96875q0.546875 0.828125 1.375 1.296875q0.84375 0.46875 1.953125 0.46875q1.421875 0 2.390625 -0.515625q0.984375 -0.53125 1.5625 -1.390625q0.59375 -0.859375 0.828125 -1.890625l0 -4.59375q-0.140625 -0.671875 -0.4375 -1.421875q-0.296875 -0.75 -0.84375 -1.390625q-0.53125 -0.65625 -1.390625 -1.0625q-0.84375 -0.40625 -2.09375 -0.40625q-1.109375 0 -1.953125 0.46875q-0.84375 0.46875 -1.390625 1.296875q-0.53125 0.828125 -0.796875 1.96875q-0.265625 1.125 -0.265625 2.453125zm32.174072 2.59375q0 -0.84375 -0.28125 -1.515625q-0.28125 -0.671875 -0.953125 -1.1875q-0.65625 -0.53125 -1.71875 -0.984375q-1.0625 -0.46875 -2.625 -0.890625q-1.4375 -0.390625 -2.59375 -0.84375q-1.140625 -0.46875 -1.953125 -1.0625q-0.8125 -0.609375 -1.25 -1.4375q-0.421875 -0.828125 -0.421875 -1.953125q0 -1.09375 0.46875 -1.96875q0.46875 -0.875 1.3125 -1.484375q0.859375 -0.625 2.0 -0.953125q1.15625 -0.34375 2.53125 -0.34375q1.90625 0 3.328125 0.734375q1.4375 0.71875 2.25 1.984375q0.8125 1.265625 0.8125 2.90625l-1.0625 0q0 -1.328125 -0.65625 -2.375q-0.65625 -1.0625 -1.84375 -1.671875q-1.1875 -0.609375 -2.828125 -0.609375q-1.703125 0 -2.875 0.53125q-1.171875 0.515625 -1.78125 1.375q-0.609375 0.84375 -0.609375 1.84375q0 0.71875 0.265625 1.34375q0.265625 0.625 0.875 1.140625q0.625 0.515625 1.6875 0.984375q1.0625 0.46875 2.65625 0.890625q1.453125 0.375 2.609375 0.859375q1.171875 0.46875 2.0 1.109375q0.84375 0.640625 1.28125 1.515625q0.4375 0.859375 0.4375 2.03125q0 1.15625 -0.5 2.0625q-0.484375 0.90625 -1.359375 1.546875q-0.875 0.625 -2.0625 0.953125q-1.171875 0.328125 -2.53125 0.328125q-1.234375 0 -2.484375 -0.296875q-1.234375 -0.3125 -2.265625 -0.96875q-1.03125 -0.671875 -1.65625 -1.75q-0.625 -1.078125 -0.625 -2.625l1.0625 0q0 1.328125 0.546875 2.234375q0.546875 0.90625 1.421875 1.4375q0.890625 0.53125 1.9375 0.765625q1.046875 0.234375 2.0625 0.234375q1.59375 0 2.8125 -0.484375q1.21875 -0.484375 1.890625 -1.359375q0.6875 -0.890625 0.6875 -2.046875zm13.04071 2.0l0 -7.265625q0 -1.109375 -0.46875 -1.90625q-0.46875 -0.796875 -1.375 -1.21875q-0.890625 -0.421875 -2.1875 -0.421875q-1.203125 0 -2.171875 0.421875q-0.953125 0.421875 -1.5 1.15625q-0.546875 0.71875 -0.546875 1.625l-1.046875 -0.015625q0 -0.8125 0.390625 -1.546875q0.390625 -0.75 1.09375 -1.328125q0.703125 -0.578125 1.671875 -0.90625q0.984375 -0.34375 2.140625 -0.34375q1.484375 0 2.609375 0.5q1.140625 0.5 1.78125 1.5q0.640625 1.0 0.640625 2.5l0 6.953125q0 0.75 0.09375 1.53125q0.109375 0.765625 0.296875 1.234375l0 0.125l-1.125 0q-0.15625 -0.5 -0.234375 -1.203125q-0.0625 -0.71875 -0.0625 -1.390625zm0.34375 -5.390625l0.03125 0.890625l-3.4375 0q-1.3125 0 -2.34375 0.25q-1.015625 0.25 -1.734375 0.703125q-0.71875 0.453125 -1.09375 1.078125q-0.375 0.625 -0.375 1.40625q0 0.8125 0.421875 1.484375q0.4375 0.671875 1.21875 1.078125q0.78125 0.390625 1.8125 0.390625q1.390625 0 2.484375 -0.484375q1.09375 -0.484375 1.828125 -1.328125q0.75 -0.84375 1.078125 -1.953125l0.453125 0.765625q-0.21875 0.6875 -0.6875 1.390625q-0.46875 0.703125 -1.21875 1.28125q-0.734375 0.578125 -1.734375 0.9375q-1.0 0.359375 -2.28125 0.359375q-1.328125 0 -2.328125 -0.5q-1.0 -0.5 -1.546875 -1.375q-0.546875 -0.890625 -0.546875 -2.015625q0 -0.984375 0.4375 -1.78125q0.453125 -0.8125 1.28125 -1.390625q0.84375 -0.578125 2.046875 -0.875q1.203125 -0.3125 2.71875 -0.3125l3.515625 0zm6.2887573 -12.015625l0 20.0l-1.046875 0l0 -20.0l1.046875 0zm3.4847412 13.203125l0 -0.484375q0 -1.5625 0.4375 -2.84375q0.453125 -1.296875 1.265625 -2.234375q0.828125 -0.9375 1.96875 -1.453125q1.140625 -0.53125 2.53125 -0.53125q1.390625 0 2.53125 0.53125q1.15625 0.515625 1.984375 1.453125q0.828125 0.9375 1.265625 2.234375q0.4375 1.28125 0.4375 2.84375l0 0.484375q0 1.546875 -0.4375 2.84375q-0.4375 1.28125 -1.265625 2.234375q-0.8125 0.9375 -1.953125 1.46875q-1.140625 0.515625 -2.53125 0.515625q-1.40625 0 -2.546875 -0.515625q-1.140625 -0.53125 -1.96875 -1.46875q-0.828125 -0.953125 -1.28125 -2.234375q-0.4375 -1.296875 -0.4375 -2.84375zm1.046875 -0.484375l0 0.484375q0 1.21875 0.34375 2.328125q0.34375 1.09375 1.0 1.953125q0.671875 0.84375 1.625 1.34375q0.96875 0.484375 2.21875 0.484375q1.21875 0 2.1875 -0.484375q0.96875 -0.5 1.625 -1.34375q0.65625 -0.859375 1.0 -1.953125q0.34375 -1.109375 0.34375 -2.328125l0 -0.484375q0 -1.203125 -0.34375 -2.296875q-0.34375 -1.09375 -1.015625 -1.953125q-0.65625 -0.859375 -1.625 -1.359375q-0.96875 -0.5 -2.203125 -0.5q-1.234375 0 -2.1875 0.5q-0.953125 0.5 -1.625 1.359375q-0.671875 0.859375 -1.015625 1.953125q-0.328125 1.09375 -0.328125 2.296875zm15.741577 -3.796875l0 11.078125l-1.03125 0l0 -14.078125l1.015625 0l0.015625 3.0zm-0.1875 2.953125l-0.515625 -0.59375q0.125 -1.125 0.546875 -2.140625q0.4375 -1.015625 1.15625 -1.796875q0.734375 -0.78125 1.703125 -1.234375q0.96875 -0.453125 2.140625 -0.453125q1.046875 0 1.875 0.296875q0.84375 0.296875 1.421875 0.921875q0.578125 0.609375 0.875 1.59375q0.3125 0.984375 0.3125 2.390625l0 9.140625l-1.03125 0l0 -9.140625q0 -1.65625 -0.46875 -2.578125q-0.453125 -0.921875 -1.265625 -1.296875q-0.8125 -0.375 -1.890625 -0.375q-1.25 0 -2.15625 0.5625q-0.90625 0.546875 -1.5 1.390625q-0.578125 0.828125 -0.890625 1.734375q-0.296875 0.890625 -0.3125 1.578125z" fill="#000000"/><path fill-rule="nonzero" d="m756.2201 278.90366l0 0l0 31.237793l0 0l0 -31.237793z" fill-opacity="0.0" fill="#010000"/><path fill-rule="evenodd" d="m58.53806 208.2454l68.37007 -109.22441l68.37008 109.22441l-68.37008 109.22441z" fill-opacity="0.0" fill="#000000"/><path fill-rule="evenodd" d="m58.53806 208.2454l68.37007 -109.22441l68.37008 109.22441l-68.37008 109.22441z" stroke-linecap="butt" stroke-linejoin="round" stroke-width="4.0" stroke="#000000"/></g></svg>